<mxfile host="65bd71144e">
    <diagram id="3uBYl2EarKnfrtRR1HCS" name="Page-1">
        <mxGraphModel dx="1050" dy="607" grid="1" gridSize="10" guides="1" tooltips="1" connect="1" arrows="1" fold="1" page="1" pageScale="1" pageWidth="850" pageHeight="1100" math="0" shadow="0">
            <root>
                <mxCell id="0"/>
                <mxCell id="1" parent="0"/>
                <mxCell id="4" style="edgeStyle=orthogonalEdgeStyle;html=1;rounded=0;" edge="1" parent="1" source="2" target="2">
                    <mxGeometry relative="1" as="geometry">
                        <mxPoint x="290" y="160" as="targetPoint"/>
                        <Array as="points">
                            <mxPoint x="235" y="150"/>
                            <mxPoint x="235" y="100"/>
                            <mxPoint x="70" y="100"/>
                            <mxPoint x="70" y="160"/>
                        </Array>
                    </mxGeometry>
                </mxCell>
                <mxCell id="5" value="reset_i = 0" style="edgeLabel;html=1;align=center;verticalAlign=middle;resizable=0;points=[];" vertex="1" connectable="0" parent="4">
                    <mxGeometry x="-0.2623" y="-1" relative="1" as="geometry">
                        <mxPoint x="17" y="36" as="offset"/>
                    </mxGeometry>
                </mxCell>
                <mxCell id="7" style="edgeStyle=orthogonalEdgeStyle;rounded=0;html=1;" edge="1" parent="1" source="2" target="9">
                    <mxGeometry relative="1" as="geometry">
                        <mxPoint x="280" y="170" as="targetPoint"/>
                        <Array as="points"/>
                    </mxGeometry>
                </mxCell>
                <mxCell id="8" value="reset_i = 1" style="edgeLabel;html=1;align=center;verticalAlign=middle;resizable=0;points=[];" vertex="1" connectable="0" parent="7">
                    <mxGeometry x="-0.2437" y="1" relative="1" as="geometry">
                        <mxPoint x="3" y="1" as="offset"/>
                    </mxGeometry>
                </mxCell>
                <mxCell id="2" value="sRESET" style="ellipse;whiteSpace=wrap;html=1;" vertex="1" parent="1">
                    <mxGeometry x="100" y="120" width="80" height="80" as="geometry"/>
                </mxCell>
                <mxCell id="6" value="(1)" style="text;html=1;align=center;verticalAlign=middle;resizable=0;points=[];autosize=1;strokeColor=none;fillColor=none;" vertex="1" parent="1">
                    <mxGeometry x="165" y="125" width="40" height="30" as="geometry"/>
                </mxCell>
                <mxCell id="11" style="edgeStyle=orthogonalEdgeStyle;rounded=0;html=1;" edge="1" parent="1" source="9" target="10">
                    <mxGeometry relative="1" as="geometry"/>
                </mxCell>
                <mxCell id="22" style="edgeStyle=orthogonalEdgeStyle;rounded=0;html=1;" edge="1" parent="1" source="9" target="20">
                    <mxGeometry relative="1" as="geometry"/>
                </mxCell>
                <mxCell id="9" value="sIR_LOAD" style="ellipse;whiteSpace=wrap;html=1;" vertex="1" parent="1">
                    <mxGeometry x="320" y="120" width="80" height="80" as="geometry"/>
                </mxCell>
                <mxCell id="13" style="edgeStyle=orthogonalEdgeStyle;rounded=0;html=1;" edge="1" parent="1" source="10" target="12">
                    <mxGeometry relative="1" as="geometry"/>
                </mxCell>
                <mxCell id="24" style="edgeStyle=orthogonalEdgeStyle;rounded=0;html=1;" edge="1" parent="1" source="10" target="41">
                    <mxGeometry relative="1" as="geometry">
                        <mxPoint x="555" y="90" as="targetPoint"/>
                        <Array as="points"/>
                    </mxGeometry>
                </mxCell>
                <mxCell id="10" value="sIR_DECODE" style="ellipse;whiteSpace=wrap;html=1;" vertex="1" parent="1">
                    <mxGeometry x="510" y="120" width="90" height="80" as="geometry"/>
                </mxCell>
                <mxCell id="25" style="edgeStyle=orthogonalEdgeStyle;rounded=0;html=1;" edge="1" parent="1" source="12" target="44">
                    <mxGeometry relative="1" as="geometry">
                        <mxPoint x="754.9999999999998" y="90" as="targetPoint"/>
                    </mxGeometry>
                </mxCell>
                <mxCell id="28" style="edgeStyle=orthogonalEdgeStyle;rounded=0;html=1;" edge="1" parent="1" source="12" target="9">
                    <mxGeometry relative="1" as="geometry">
                        <Array as="points">
                            <mxPoint x="755" y="320"/>
                            <mxPoint x="360" y="320"/>
                        </Array>
                    </mxGeometry>
                </mxCell>
                <mxCell id="36" style="edgeStyle=orthogonalEdgeStyle;rounded=0;html=1;" edge="1" parent="1" source="12" target="35">
                    <mxGeometry relative="1" as="geometry"/>
                </mxCell>
                <mxCell id="12" value="sOPCODE_DECDE" style="ellipse;whiteSpace=wrap;html=1;" vertex="1" parent="1">
                    <mxGeometry x="690" y="120" width="130" height="80" as="geometry"/>
                </mxCell>
                <mxCell id="20" value="data_wr_o = 1" style="whiteSpace=wrap;html=1;" vertex="1" parent="1">
                    <mxGeometry x="313" y="70" width="95" height="20" as="geometry"/>
                </mxCell>
                <mxCell id="35" value="data_wr_o = 1" style="whiteSpace=wrap;html=1;" vertex="1" parent="1">
                    <mxGeometry x="850" y="80" width="100" height="25" as="geometry"/>
                </mxCell>
                <mxCell id="37" value="opcode_i = STOREaddr" style="edgeLabel;html=1;align=center;verticalAlign=middle;resizable=0;points=[];" vertex="1" connectable="0" parent="1">
                    <mxGeometry x="908" y="144.99655172413767" as="geometry"/>
                </mxCell>
                <mxCell id="38" value="IR_load_i = 0" style="whiteSpace=wrap;html=1;fontColor=#B3B3B3;" vertex="1" parent="1">
                    <mxGeometry x="313" y="50" width="95" height="20" as="geometry"/>
                </mxCell>
                <mxCell id="39" value="PC_load_i = 0" style="whiteSpace=wrap;html=1;fontColor=#B3B3B3;" vertex="1" parent="1">
                    <mxGeometry x="313" y="30" width="95" height="20" as="geometry"/>
                </mxCell>
                <mxCell id="41" value="data_wr_o = 0" style="whiteSpace=wrap;html=1;fontColor=#B3B3B3;" vertex="1" parent="1">
                    <mxGeometry x="507" y="70" width="95" height="20" as="geometry"/>
                </mxCell>
                <mxCell id="42" value="IR_load_i = 1" style="whiteSpace=wrap;html=1;" vertex="1" parent="1">
                    <mxGeometry x="507" y="50" width="95" height="20" as="geometry"/>
                </mxCell>
                <mxCell id="43" value="PC_load_i = 0" style="whiteSpace=wrap;html=1;fontColor=#B3B3B3;" vertex="1" parent="1">
                    <mxGeometry x="507" y="30" width="95" height="20" as="geometry"/>
                </mxCell>
                <mxCell id="44" value="data_wr_o = 0" style="whiteSpace=wrap;html=1;fontColor=#B3B3B3;" vertex="1" parent="1">
                    <mxGeometry x="707" y="70" width="95" height="20" as="geometry"/>
                </mxCell>
                <mxCell id="45" value="IR_load_i = 0" style="whiteSpace=wrap;html=1;fontColor=#B3B3B3;" vertex="1" parent="1">
                    <mxGeometry x="707" y="50" width="95" height="20" as="geometry"/>
                </mxCell>
                <mxCell id="46" value="PC_load_i = 1" style="whiteSpace=wrap;html=1;" vertex="1" parent="1">
                    <mxGeometry x="707" y="30" width="95" height="20" as="geometry"/>
                </mxCell>
                <mxCell id="49" value="&lt;span style=&quot;&quot;&gt;data_wr_o = 0&lt;/span&gt;" style="whiteSpace=wrap;html=1;fontColor=#B3B3B3;" vertex="1" parent="1">
                    <mxGeometry x="507" y="10" width="95" height="20" as="geometry"/>
                </mxCell>
                <mxCell id="50" value="&lt;span style=&quot;&quot;&gt;data_wr_o = 0&lt;/span&gt;" style="whiteSpace=wrap;html=1;fontColor=#B3B3B3;" vertex="1" parent="1">
                    <mxGeometry x="312.5" y="10" width="95" height="20" as="geometry"/>
                </mxCell>
            </root>
        </mxGraphModel>
    </diagram>
</mxfile>